{"title":"Fear The Walking Dead S01E02 So Close, Yet So Far 1080P WEB-DL","uid":12323817,"size":1833811038,"categoryP":"video","categoryS":"hd___tv_shows","magnet":"?xt=urn:btih:d79eeb7b33f2edd2ac23f79bb7fc3bf34feb88b1&amp;dn=Fear+The+Walking+Dead+S01E02+So+Close%2C+Yet+So+Far+1080P+WEB-DL&amp;tr=udp%3A%2F%2Ftracker.openbittorrent.com%3A80&amp;tr=udp%3A%2F%2Fopen.demonii.com%3A1337&amp;tr=udp%3A%2F%2Ftracker.coppersurfer.tk%3A6969&amp;tr=udp%3A%2F%2Fexodus.desync.com%3A6969","seeders":2,"leechers":3,"uploader":"jmanwf","files":2,"time":1441088573,"description":"While Madison struggles to keep Nick from crippling withdrawal, Travis ventures out to find his son before the city of Los Angeles falls\n\n\n\n\nVideo\nID                                       : 2\nFormat                                   : AVC\nFormat/Info                              : Advanced Video Codec\nFormat profile                           : High@L4\nFormat settings, CABAC                   : Yes\nFormat settings, ReFrames                : 4 frames\nCodec ID                                 : avc1\nCodec ID/Info                            : Advanced Video Coding\nDuration                                 : 42mn 56s\nDuration_LastFrame                       : -1ms\nBit rate                                 : 5 182 Kbps\nWidth                                    : 1 920 pixels\nHeight                                   : 1 080 pixels\nDisplay aspect ratio                     : 16:9\nFrame rate mode                          : Constant\nFrame rate                               : 23.976 fps\nColor space                              : YUV\nChroma subsampling                       : 4:2:0\nBit depth                                : 8 bits\nScan type                                : Progressive\nBits/(Pixel*Frame)                       : 0.104\nStream size                              : 1.55 GiB (91%)\nLanguage                                 : English\nEncoded date                             : UTC 2015-08-31 10:16:28\nTagged date                              : UTC 2015-08-31 10:21:13\nColor range                              : Limited\nColor primaries                          : BT.709\nTransfer characteristics                 : BT.709\nMatrix coefficients                      : BT.709\n\nAudio #1\nID                                       : 1\nFormat                                   : AAC\nFormat/Info                              : Advanced Audio Codec\nFormat profile                           : LC\nCodec ID                                 : 40\nDuration                                 : 42mn 56s\nDuration_LastFrame                       : -1ms\nBit rate mode                            : Variable\nBit rate                                 : 122 Kbps\nMaximum bit rate                         : 207 Kbps\nChannel(s)                               : 2 channels\nChannel positions                        : Front: L R\nSampling rate                            : 48.0 KHz\nCompression mode                         : Lossy\nStream size                              : 37.6 MiB (2%)\nLanguage                                 : English\nEncoded date                             : UTC 2015-08-31 10:16:28\nTagged date                              : UTC 2015-08-31 10:21:13\n\nAudio #2\nID                                       : 3\nFormat                                   : AC-3\nFormat/Info                              : Audio Coding 3\nMode extension                           : CM (complete main)\nFormat settings, Endianness              : Big\nCodec ID                                 : ac-3\nDuration                                 : 42mn 56s\nDuration_LastFrame                       : -1ms\nBit rate mode                            : Constant\nBit rate                                 : 384 Kbps\nChannel(s)                               : 6 channels\nChannel positions                        : Front: L C R, Side: L R, LFE\nSampling rate                            : 48.0 KHz\nBit depth                                : 16 bits\nCompression mode                         : Lossy\nStream size                              : 118 MiB (7%)\nLanguage                                 : English\nEncoded date                             : UTC 2015-08-31 10:16:28\nTagged date                              : UTC 2015-08-31 10:21:13\n\nText\nID                                       : 4-CC1\nFormat                                   : EIA-608\nMuxing mode                              : Final Cut\nCodec ID                                 : c608\nDuration                                 : 42mn 27s\nBit rate mode                            : Constant\nStream size                              : 0.00 Byte (0%)\nLanguage                                 : English\nEncoded date                             : UTC 2015-08-31 10:16:28\nTagged date                              : UTC 2015-08-31 10:20:59\n\n\n\n\n &lt;a href=&quot;\nhttps://itunes.apple.com/us/tv-season/fear-the-walking-dead-season-1/id1009616456&quot; rel=&quot;nofollow&quot; target=&quot;_NEW&quot;&gt;\nhttps://itunes.apple.com/us/tv-season/fear-the-walking-dead-season-1/id1009616456&lt;/a&gt;","torrent":{"xt":"urn:btih:d79eeb7b33f2edd2ac23f79bb7fc3bf34feb88b1","amp;dn":"Fear+The+Walking+Dead+S01E02+So+Close%2C+Yet+So+Far+1080P+WEB-DL","amp;tr":["udp%3A%2F%2Ftracker.openbittorrent.com%3A80","udp%3A%2F%2Fopen.demonii.com%3A1337","udp%3A%2F%2Ftracker.coppersurfer.tk%3A6969","udp%3A%2F%2Fexodus.desync.com%3A6969"],"infoHash":"d79eeb7b33f2edd2ac23f79bb7fc3bf34feb88b1","infoHashBuffer":{"type":"Buffer","data":[215,158,235,123,51,242,237,210,172,35,247,155,183,252,59,243,79,235,136,177]},"announce":[],"urlList":[]}}